# File created by Blade
# Date/Time:  Wed Jan 21 14:58:10 2015
# Frame Rate: 120.000 fps
#------------------------------------------------------
:FULLY-SPECIFIED
:DEGREES
445
root 16.276522 35.326047 -22.918924 -169.165566 -34.993531 -186.316785
Spine -21.420084 37.200974 -12.577155
Head 15.483034 4.885117 3.280479
LeftShoulder -9.681943 -30.006698 20.235802
LeftArm -2.253733 0.598301 -8.542419
LeftForeArm 12.650018 -0.000000 -4.603265
LeftHand -10.766570 -0.000000 -2.854499
LeftHandThumb1 -26.253704 0.000000 33.147579
RightShoulder -0.210260 1.907796 -11.128380
RightArm 38.472148 17.210466 21.132910
RightForeArm -37.050456 -0.000000 8.292698
RightHand -5.194035 -0.000000 10.585551
RightHandThumb1 -24.326973 -0.000000 -32.862282
LeftUpLeg -5.079539 -11.091827 -0.743648
LeftLeg -5.787190 -0.000000 0.000000
LeftFoot -13.842438 16.134334 -13.157724
LeftToeBase 29.158015 -0.000000 -0.000000
RightUpLeg 7.817453 -19.834682 -8.761547
RightLeg -2.470813 -0.000000 0.000000
RightFoot -26.429945 -28.766306 22.535254
RightToeBase 19.985464 -0.000000 -0.000000
446
root 16.274797 35.340817 -22.930052 -169.373812 -34.358847 -186.022594
Spine -21.339311 36.934236 -12.226777
Head 15.545794 4.614035 3.182228
LeftShoulder -9.686361 -29.777196 20.184979
LeftArm -2.156663 0.606516 -8.572674
LeftForeArm 12.474693 -0.000000 -4.647699
LeftHand -10.800891 -0.000000 -2.879451
LeftHandThumb1 -26.253704 0.000000 33.147579
RightShoulder -0.335727 1.657019 -11.033123
RightArm 38.317729 17.469665 20.941493
RightForeArm -37.349144 -0.000000 8.265065
RightHand -5.156776 0.000000 10.791875
RightHandThumb1 -24.326973 -0.000000 -32.862282
LeftUpLeg -4.969770 -10.645726 -0.611363
LeftLeg -5.752956 -0.000000 0.000000
LeftFoot -13.986817 16.310444 -13.194755
LeftToeBase 29.086156 -0.000000 -0.000000
RightUpLeg 7.663427 -19.565797 -8.622126
RightLeg -2.443472 -0.000000 0.000000
RightFoot -26.067973 -28.553940 22.504787
RightToeBase 19.624386 -0.000000 -0.000000
447
root 16.267633 35.354655 -22.939608 -169.576881 -33.753943 -185.739335
Spine -21.231724 36.617641 -11.850136
Head 15.564887 4.391296 3.120557
LeftShoulder -9.738401 -29.739116 20.222377
LeftArm -2.152343 0.595178 -8.614031
LeftForeArm 12.440365 -0.000000 -4.591254
LeftHand -10.817856 -0.000000 -2.903656
LeftHandThumb1 -26.253704 0.000000 33.147579
RightShoulder -0.402013 1.802119 -11.054312
RightArm 37.865657 17.225206 20.734655
RightForeArm -36.981409 -0.000000 8.244614
RightHand -5.180215 -0.000000 10.507219
RightHandThumb1 -24.326973 -0.000000 -32.862282
LeftUpLeg -4.856977 -10.260274 -0.487996
LeftLeg -5.714995 -0.000000 0.000000
LeftFoot -14.157954 16.528569 -13.227835
LeftToeBase 29.062506 -0.000000 -0.000000
RightUpLeg 7.534424 -19.384004 -8.500224
RightLeg -2.432999 -0.000000 0.000000
RightFoot -25.700769 -28.341375 22.375094
RightToeBase 19.578543 -0.000000 -0.000000
448
root 16.259120 35.368814 -22.955993 -169.817998 -33.119742 -185.442724
Spine -21.111152 36.328041 -11.440777
Head 15.629646 4.140264 3.037571
LeftShoulder -9.718811 -29.700561 20.162811
LeftArm -2.135333 0.625046 -8.570219
LeftForeArm 12.427974 -0.000000 -4.624281
LeftHand -10.843011 -0.000000 -2.887726
LeftHandThumb1 -26.253704 0.000000 33.147579
RightShoulder -0.459718 1.664362 -11.023675
RightArm 37.578594 17.395695 20.626011
RightForeArm -37.022688 -0.000000 8.202513
RightHand -4.957574 -0.000000 10.590578
RightHandThumb1 -24.326973 -0.000000 -32.862282
LeftUpLeg -4.670534 -9.811586 -0.365398
LeftLeg -5.723716 -0.000000 0.000000
LeftFoot -14.307128 16.735992 -13.256675
LeftToeBase 28.973598 -0.000000 -0.000000
RightUpLeg 7.463218 -19.163030 -8.378298
RightLeg -2.453076 -0.000000 0.000000
RightFoot -25.287482 -28.168846 22.137404
RightToeBase 19.620306 -0.000000 -0.000000
